<mxfile host="65bd71144e">
    <diagram id="-EJkcxBsr4JTpKG0bV9I" name="Page-1">
        <mxGraphModel dx="247" dy="195" grid="1" gridSize="10" guides="1" tooltips="1" connect="1" arrows="1" fold="1" page="1" pageScale="1" pageWidth="827" pageHeight="1169" math="0" shadow="0">
            <root>
                <mxCell id="0"/>
                <mxCell id="1" parent="0"/>
                <mxCell id="gJNjrskINiWtCzBd5wm--2" value="PROGRAM COUNTER" style="rounded=0;whiteSpace=wrap;html=1;fillColor=none;" parent="1" vertex="1">
                    <mxGeometry x="174" y="165" width="160" height="80" as="geometry"/>
                </mxCell>
                <mxCell id="gJNjrskINiWtCzBd5wm--4" value="" style="rounded=0;whiteSpace=wrap;html=1;fillColor=none;" parent="1" vertex="1">
                    <mxGeometry x="404" y="165" width="20" height="840" as="geometry"/>
                </mxCell>
                <mxCell id="gJNjrskINiWtCzBd5wm--6" value="8bits" style="endArrow=classic;startArrow=classic;html=1;" parent="1" edge="1">
                    <mxGeometry width="50" height="50" relative="1" as="geometry">
                        <mxPoint x="334" y="205.43" as="sourcePoint"/>
                        <mxPoint x="403" y="204.57" as="targetPoint"/>
                    </mxGeometry>
                </mxCell>
                <mxCell id="gJNjrskINiWtCzBd5wm--49" style="edgeStyle=orthogonalEdgeStyle;rounded=0;orthogonalLoop=1;jettySize=auto;html=1;exitX=0.75;exitY=1;exitDx=0;exitDy=0;" parent="1" source="gJNjrskINiWtCzBd5wm--9" edge="1">
                    <mxGeometry relative="1" as="geometry">
                        <mxPoint x="574" y="285" as="targetPoint"/>
                        <Array as="points">
                            <mxPoint x="614" y="285"/>
                        </Array>
                    </mxGeometry>
                </mxCell>
                <mxCell id="gJNjrskINiWtCzBd5wm--9" value="ACCUMULATOR" style="rounded=0;whiteSpace=wrap;html=1;fillColor=none;" parent="1" vertex="1">
                    <mxGeometry x="494" y="165" width="160" height="80" as="geometry"/>
                </mxCell>
                <mxCell id="gJNjrskINiWtCzBd5wm--10" value="8bits" style="endArrow=classic;startArrow=classic;html=1;" parent="1" edge="1">
                    <mxGeometry width="50" height="50" relative="1" as="geometry">
                        <mxPoint x="424" y="205.43" as="sourcePoint"/>
                        <mxPoint x="493" y="204.57" as="targetPoint"/>
                    </mxGeometry>
                </mxCell>
                <mxCell id="gJNjrskINiWtCzBd5wm--13" value="STACK 16 LEVELS" style="rounded=0;whiteSpace=wrap;html=1;fillColor=none;" parent="1" vertex="1">
                    <mxGeometry x="174" y="265" width="160" height="80" as="geometry"/>
                </mxCell>
                <mxCell id="gJNjrskINiWtCzBd5wm--14" value="8bits" style="endArrow=classic;startArrow=classic;html=1;" parent="1" edge="1">
                    <mxGeometry width="50" height="50" relative="1" as="geometry">
                        <mxPoint x="334.0000000000001" y="305.43000000000006" as="sourcePoint"/>
                        <mxPoint x="403" y="304.57" as="targetPoint"/>
                    </mxGeometry>
                </mxCell>
                <mxCell id="gJNjrskINiWtCzBd5wm--18" value="UR 16 BYTES" style="rounded=0;whiteSpace=wrap;html=1;fillColor=none;" parent="1" vertex="1">
                    <mxGeometry x="174" y="365" width="160" height="80" as="geometry"/>
                </mxCell>
                <mxCell id="gJNjrskINiWtCzBd5wm--19" value="8bits" style="endArrow=classic;startArrow=classic;html=1;" parent="1" edge="1">
                    <mxGeometry width="50" height="50" relative="1" as="geometry">
                        <mxPoint x="334.0000000000001" y="405.43000000000006" as="sourcePoint"/>
                        <mxPoint x="403" y="404.56999999999994" as="targetPoint"/>
                    </mxGeometry>
                </mxCell>
                <mxCell id="gJNjrskINiWtCzBd5wm--20" value="MAR" style="rounded=0;whiteSpace=wrap;html=1;fillColor=none;" parent="1" vertex="1">
                    <mxGeometry x="174" y="465" width="160" height="80" as="geometry"/>
                </mxCell>
                <mxCell id="gJNjrskINiWtCzBd5wm--23" value="ARGUMENT REGISTER" style="rounded=0;whiteSpace=wrap;html=1;fillColor=none;" parent="1" vertex="1">
                    <mxGeometry x="174" y="565" width="160" height="80" as="geometry"/>
                </mxCell>
                <mxCell id="gJNjrskINiWtCzBd5wm--24" value="8bits" style="endArrow=classic;startArrow=classic;html=1;" parent="1" edge="1">
                    <mxGeometry width="50" height="50" relative="1" as="geometry">
                        <mxPoint x="334" y="605.4300000000001" as="sourcePoint"/>
                        <mxPoint x="403" y="604.5699999999999" as="targetPoint"/>
                    </mxGeometry>
                </mxCell>
                <mxCell id="gJNjrskINiWtCzBd5wm--30" value="8bits" style="edgeStyle=orthogonalEdgeStyle;rounded=0;orthogonalLoop=1;jettySize=auto;html=1;exitX=0.5;exitY=1;exitDx=0;exitDy=0;entryX=0.5;entryY=0;entryDx=0;entryDy=0;" parent="1" source="gJNjrskINiWtCzBd5wm--26" target="gJNjrskINiWtCzBd5wm--28" edge="1">
                    <mxGeometry relative="1" as="geometry"/>
                </mxCell>
                <mxCell id="gJNjrskINiWtCzBd5wm--26" value="INSTRUCTION REGISTER" style="rounded=0;whiteSpace=wrap;html=1;fillColor=none;" parent="1" vertex="1">
                    <mxGeometry x="174" y="665" width="160" height="80" as="geometry"/>
                </mxCell>
                <mxCell id="gJNjrskINiWtCzBd5wm--28" value="CONTROL UNITY" style="rounded=0;whiteSpace=wrap;html=1;fillColor=none;" parent="1" vertex="1">
                    <mxGeometry x="174" y="795" width="160" height="80" as="geometry"/>
                </mxCell>
                <mxCell id="gJNjrskINiWtCzBd5wm--34" value="8bits" style="edgeStyle=orthogonalEdgeStyle;rounded=0;orthogonalLoop=1;jettySize=auto;html=1;entryX=0.5;entryY=1;entryDx=0;entryDy=0;" parent="1" source="gJNjrskINiWtCzBd5wm--32" target="gJNjrskINiWtCzBd5wm--28" edge="1">
                    <mxGeometry relative="1" as="geometry"/>
                </mxCell>
                <mxCell id="gJNjrskINiWtCzBd5wm--32" value="FLAGS REGISTER" style="rounded=0;whiteSpace=wrap;html=1;fillColor=none;" parent="1" vertex="1">
                    <mxGeometry x="174" y="925" width="160" height="80" as="geometry"/>
                </mxCell>
                <mxCell id="gJNjrskINiWtCzBd5wm--51" style="edgeStyle=orthogonalEdgeStyle;rounded=0;orthogonalLoop=1;jettySize=auto;html=1;exitX=0.75;exitY=0;exitDx=0;exitDy=0;" parent="1" source="gJNjrskINiWtCzBd5wm--50" edge="1">
                    <mxGeometry relative="1" as="geometry">
                        <mxPoint x="574" y="345" as="targetPoint"/>
                        <Array as="points">
                            <mxPoint x="614" y="345"/>
                        </Array>
                    </mxGeometry>
                </mxCell>
                <mxCell id="gJNjrskINiWtCzBd5wm--50" value="B REGISTER" style="rounded=0;whiteSpace=wrap;html=1;fillColor=none;" parent="1" vertex="1">
                    <mxGeometry x="494" y="385" width="160" height="80" as="geometry"/>
                </mxCell>
                <mxCell id="gJNjrskINiWtCzBd5wm--52" value="" style="group" parent="1" vertex="1" connectable="0">
                    <mxGeometry x="493.99999999999994" y="265" width="80.29000000000002" height="100" as="geometry"/>
                </mxCell>
                <mxCell id="gJNjrskINiWtCzBd5wm--35" value="" style="endArrow=none;html=1;" parent="gJNjrskINiWtCzBd5wm--52" edge="1">
                    <mxGeometry width="50" height="50" as="geometry">
                        <mxPoint x="80.29000000000002" y="30" as="sourcePoint"/>
                        <mxPoint x="80.29000000000002" as="targetPoint"/>
                    </mxGeometry>
                </mxCell>
                <mxCell id="gJNjrskINiWtCzBd5wm--36" value="" style="endArrow=none;html=1;" parent="gJNjrskINiWtCzBd5wm--52" edge="1">
                    <mxGeometry width="50" height="50" as="geometry">
                        <mxPoint x="80.29000000000002" y="100" as="sourcePoint"/>
                        <mxPoint x="80.29000000000002" y="70" as="targetPoint"/>
                    </mxGeometry>
                </mxCell>
                <mxCell id="gJNjrskINiWtCzBd5wm--37" value="" style="endArrow=none;html=1;" parent="gJNjrskINiWtCzBd5wm--52" edge="1">
                    <mxGeometry width="50" height="50" as="geometry">
                        <mxPoint y="70" as="sourcePoint"/>
                        <mxPoint y="30" as="targetPoint"/>
                    </mxGeometry>
                </mxCell>
                <mxCell id="gJNjrskINiWtCzBd5wm--39" value="" style="endArrow=none;html=1;" parent="gJNjrskINiWtCzBd5wm--52" edge="1">
                    <mxGeometry width="50" height="50" as="geometry">
                        <mxPoint x="80.29000000000002" y="100" as="sourcePoint"/>
                        <mxPoint x="0.29000000000002046" y="70" as="targetPoint"/>
                    </mxGeometry>
                </mxCell>
                <mxCell id="gJNjrskINiWtCzBd5wm--40" value="" style="endArrow=none;html=1;" parent="gJNjrskINiWtCzBd5wm--52" edge="1">
                    <mxGeometry width="50" height="50" as="geometry">
                        <mxPoint x="0.29000000000002046" y="30" as="sourcePoint"/>
                        <mxPoint x="80.29000000000002" as="targetPoint"/>
                    </mxGeometry>
                </mxCell>
                <mxCell id="gJNjrskINiWtCzBd5wm--41" value="" style="endArrow=none;html=1;" parent="gJNjrskINiWtCzBd5wm--52" edge="1">
                    <mxGeometry width="50" height="50" as="geometry">
                        <mxPoint x="40.29000000000002" y="50" as="sourcePoint"/>
                        <mxPoint x="80.29000000000002" y="70" as="targetPoint"/>
                    </mxGeometry>
                </mxCell>
                <mxCell id="gJNjrskINiWtCzBd5wm--42" value="" style="endArrow=none;html=1;" parent="gJNjrskINiWtCzBd5wm--52" edge="1">
                    <mxGeometry width="50" height="50" as="geometry">
                        <mxPoint x="40.29000000000002" y="50" as="sourcePoint"/>
                        <mxPoint x="80.29000000000002" y="30" as="targetPoint"/>
                    </mxGeometry>
                </mxCell>
                <mxCell id="gJNjrskINiWtCzBd5wm--43" value="ULA" style="text;html=1;strokeColor=none;fillColor=none;align=center;verticalAlign=middle;whiteSpace=wrap;rounded=0;" parent="gJNjrskINiWtCzBd5wm--52" vertex="1">
                    <mxGeometry x="0.29000000000002046" y="40" width="40" height="20" as="geometry"/>
                </mxCell>
                <mxCell id="gJNjrskINiWtCzBd5wm--54" value="8bits" style="endArrow=classic;startArrow=classic;html=1;" parent="1" edge="1">
                    <mxGeometry width="50" height="50" relative="1" as="geometry">
                        <mxPoint x="424" y="315.43" as="sourcePoint"/>
                        <mxPoint x="493" y="314.57" as="targetPoint"/>
                    </mxGeometry>
                </mxCell>
                <mxCell id="gJNjrskINiWtCzBd5wm--55" value="" style="endArrow=classic;html=1;entryX=1;entryY=0.5;entryDx=0;entryDy=0;" parent="1" target="gJNjrskINiWtCzBd5wm--20" edge="1">
                    <mxGeometry width="50" height="50" relative="1" as="geometry">
                        <mxPoint x="403" y="505" as="sourcePoint"/>
                        <mxPoint x="504" y="515" as="targetPoint"/>
                    </mxGeometry>
                </mxCell>
                <mxCell id="gJNjrskINiWtCzBd5wm--56" value="8bits" style="edgeLabel;html=1;align=center;verticalAlign=middle;resizable=0;points=[];" parent="gJNjrskINiWtCzBd5wm--55" vertex="1" connectable="0">
                    <mxGeometry x="-0.1264" relative="1" as="geometry">
                        <mxPoint as="offset"/>
                    </mxGeometry>
                </mxCell>
                <mxCell id="gJNjrskINiWtCzBd5wm--57" value="" style="endArrow=classic;html=1;entryX=1;entryY=0.5;entryDx=0;entryDy=0;" parent="1" edge="1">
                    <mxGeometry width="50" height="50" relative="1" as="geometry">
                        <mxPoint x="403" y="704.76" as="sourcePoint"/>
                        <mxPoint x="334" y="704.76" as="targetPoint"/>
                    </mxGeometry>
                </mxCell>
                <mxCell id="gJNjrskINiWtCzBd5wm--58" value="8bits" style="edgeLabel;html=1;align=center;verticalAlign=middle;resizable=0;points=[];" parent="gJNjrskINiWtCzBd5wm--57" vertex="1" connectable="0">
                    <mxGeometry x="-0.1264" relative="1" as="geometry">
                        <mxPoint as="offset"/>
                    </mxGeometry>
                </mxCell>
                <mxCell id="gJNjrskINiWtCzBd5wm--59" value="" style="endArrow=classic;html=1;entryX=0;entryY=0.5;entryDx=0;entryDy=0;" parent="1" target="gJNjrskINiWtCzBd5wm--50" edge="1">
                    <mxGeometry width="50" height="50" relative="1" as="geometry">
                        <mxPoint x="424" y="425" as="sourcePoint"/>
                        <mxPoint x="404" y="375" as="targetPoint"/>
                    </mxGeometry>
                </mxCell>
                <mxCell id="gJNjrskINiWtCzBd5wm--60" value="8bits" style="edgeLabel;html=1;align=center;verticalAlign=middle;resizable=0;points=[];" parent="gJNjrskINiWtCzBd5wm--59" vertex="1" connectable="0">
                    <mxGeometry x="0.1429" y="-1" relative="1" as="geometry">
                        <mxPoint y="-1" as="offset"/>
                    </mxGeometry>
                </mxCell>
                <mxCell id="gJNjrskINiWtCzBd5wm--61" value="OUTPUT REGISTER" style="rounded=0;whiteSpace=wrap;html=1;fillColor=none;" parent="1" vertex="1">
                    <mxGeometry x="494" y="485" width="160" height="80" as="geometry"/>
                </mxCell>
                <mxCell id="gJNjrskINiWtCzBd5wm--62" value="INPUT REGISTER" style="rounded=0;whiteSpace=wrap;html=1;fillColor=none;" parent="1" vertex="1">
                    <mxGeometry x="494" y="585" width="160" height="80" as="geometry"/>
                </mxCell>
                <mxCell id="gJNjrskINiWtCzBd5wm--63" value="" style="endArrow=classic;html=1;entryX=0;entryY=0.5;entryDx=0;entryDy=0;" parent="1" edge="1">
                    <mxGeometry width="50" height="50" relative="1" as="geometry">
                        <mxPoint x="424" y="524.66" as="sourcePoint"/>
                        <mxPoint x="494" y="524.66" as="targetPoint"/>
                    </mxGeometry>
                </mxCell>
                <mxCell id="gJNjrskINiWtCzBd5wm--64" value="8bits" style="edgeLabel;html=1;align=center;verticalAlign=middle;resizable=0;points=[];" parent="gJNjrskINiWtCzBd5wm--63" vertex="1" connectable="0">
                    <mxGeometry x="0.1429" y="-1" relative="1" as="geometry">
                        <mxPoint y="-1" as="offset"/>
                    </mxGeometry>
                </mxCell>
                <mxCell id="gJNjrskINiWtCzBd5wm--65" value="" style="endArrow=classic;html=1;entryX=1;entryY=0.5;entryDx=0;entryDy=0;" parent="1" edge="1">
                    <mxGeometry width="50" height="50" relative="1" as="geometry">
                        <mxPoint x="494" y="624.66" as="sourcePoint"/>
                        <mxPoint x="425.0000000000001" y="624.66" as="targetPoint"/>
                    </mxGeometry>
                </mxCell>
                <mxCell id="gJNjrskINiWtCzBd5wm--66" value="8bits" style="edgeLabel;html=1;align=center;verticalAlign=middle;resizable=0;points=[];" parent="gJNjrskINiWtCzBd5wm--65" vertex="1" connectable="0">
                    <mxGeometry x="-0.1264" relative="1" as="geometry">
                        <mxPoint as="offset"/>
                    </mxGeometry>
                </mxCell>
                <mxCell id="9kONboCbIvX54LwJr3De-1" value="" style="endArrow=classic;html=1;entryX=1;entryY=0.5;entryDx=0;entryDy=0;" parent="1" edge="1">
                    <mxGeometry width="50" height="50" relative="1" as="geometry">
                        <mxPoint x="404" y="964.8" as="sourcePoint"/>
                        <mxPoint x="335" y="964.8" as="targetPoint"/>
                    </mxGeometry>
                </mxCell>
                <mxCell id="9kONboCbIvX54LwJr3De-2" value="8bits" style="edgeLabel;html=1;align=center;verticalAlign=middle;resizable=0;points=[];" parent="9kONboCbIvX54LwJr3De-1" vertex="1" connectable="0">
                    <mxGeometry x="-0.1264" relative="1" as="geometry">
                        <mxPoint as="offset"/>
                    </mxGeometry>
                </mxCell>
                <mxCell id="9kONboCbIvX54LwJr3De-3" value="" style="shape=flexArrow;endArrow=classic;html=1;" parent="1" edge="1">
                    <mxGeometry width="50" height="50" relative="1" as="geometry">
                        <mxPoint x="174" y="504.8" as="sourcePoint"/>
                        <mxPoint x="134" y="504.8" as="targetPoint"/>
                    </mxGeometry>
                </mxCell>
                <mxCell id="9kONboCbIvX54LwJr3De-4" value="8bits" style="edgeLabel;html=1;align=center;verticalAlign=middle;resizable=0;points=[];" parent="9kONboCbIvX54LwJr3De-3" vertex="1" connectable="0">
                    <mxGeometry x="0.568" relative="1" as="geometry">
                        <mxPoint x="-23" as="offset"/>
                    </mxGeometry>
                </mxCell>
                <mxCell id="9kONboCbIvX54LwJr3De-5" value="" style="shape=flexArrow;endArrow=classic;html=1;" parent="1" edge="1">
                    <mxGeometry width="50" height="50" relative="1" as="geometry">
                        <mxPoint x="694" y="624.66" as="sourcePoint"/>
                        <mxPoint x="654" y="624.66" as="targetPoint"/>
                    </mxGeometry>
                </mxCell>
                <mxCell id="9kONboCbIvX54LwJr3De-6" value="8bits" style="edgeLabel;html=1;align=center;verticalAlign=middle;resizable=0;points=[];" parent="9kONboCbIvX54LwJr3De-5" vertex="1" connectable="0">
                    <mxGeometry x="0.568" relative="1" as="geometry">
                        <mxPoint x="47" as="offset"/>
                    </mxGeometry>
                </mxCell>
                <mxCell id="9kONboCbIvX54LwJr3De-7" value="" style="shape=flexArrow;endArrow=classic;html=1;" parent="1" edge="1">
                    <mxGeometry width="50" height="50" relative="1" as="geometry">
                        <mxPoint x="654" y="524.8" as="sourcePoint"/>
                        <mxPoint x="694" y="524.8" as="targetPoint"/>
                    </mxGeometry>
                </mxCell>
                <mxCell id="9kONboCbIvX54LwJr3De-8" value="8bits" style="edgeLabel;html=1;align=center;verticalAlign=middle;resizable=0;points=[];" parent="9kONboCbIvX54LwJr3De-7" vertex="1" connectable="0">
                    <mxGeometry x="0.68" y="-2" relative="1" as="geometry">
                        <mxPoint x="22" y="-2" as="offset"/>
                    </mxGeometry>
                </mxCell>
                <mxCell id="9kONboCbIvX54LwJr3De-9" value="BUS 8bits" style="text;html=1;strokeColor=none;fillColor=none;align=center;verticalAlign=middle;whiteSpace=wrap;rounded=0;" parent="1" vertex="1">
                    <mxGeometry x="381" y="145" width="66" height="20" as="geometry"/>
                </mxCell>
                <mxCell id="9kONboCbIvX54LwJr3De-12" value="" style="shape=flexArrow;endArrow=classic;html=1;" parent="1" edge="1">
                    <mxGeometry width="50" height="50" relative="1" as="geometry">
                        <mxPoint x="190" y="875" as="sourcePoint"/>
                        <mxPoint x="150" y="900" as="targetPoint"/>
                        <Array as="points">
                            <mxPoint x="190" y="900"/>
                        </Array>
                    </mxGeometry>
                </mxCell>
                <mxCell id="9kONboCbIvX54LwJr3De-13" value="CONTROL WORD" style="edgeLabel;html=1;align=center;verticalAlign=middle;resizable=0;points=[];" parent="9kONboCbIvX54LwJr3De-12" vertex="1" connectable="0">
                    <mxGeometry x="0.5176" y="1" relative="1" as="geometry">
                        <mxPoint x="-63" as="offset"/>
                    </mxGeometry>
                </mxCell>
                <mxCell id="Wl2APsPmaANpQv5BRaGD-1" value="STACK POINT REGISTER" style="rounded=0;whiteSpace=wrap;html=1;fillColor=none;" parent="1" vertex="1">
                    <mxGeometry x="494" y="690" width="160" height="80" as="geometry"/>
                </mxCell>
                <mxCell id="Wl2APsPmaANpQv5BRaGD-3" value="LSB" style="endArrow=classic;startArrow=classic;html=1;" parent="1" edge="1">
                    <mxGeometry width="50" height="50" relative="1" as="geometry">
                        <mxPoint x="424" y="730.4300000000001" as="sourcePoint"/>
                        <mxPoint x="493" y="729.5699999999999" as="targetPoint"/>
                        <Array as="points">
                            <mxPoint x="459" y="730"/>
                        </Array>
                    </mxGeometry>
                </mxCell>
            </root>
        </mxGraphModel>
    </diagram>
</mxfile>